<svg xmlns="http://www.w3.org/2000/svg" xmlns:xlink="http://www.w3.org/1999/xlink" viewBox="0 0 39.687 32.442" height="122.615" width="149.998" xmlns:v="https://vecta.io/nano"><path d="M11.245 28.462h2.646V27.16h-2.646zm2.646 1.344h-2.646v1.302h2.646zm1.323 1.312H13.9v1.323H9.92v-6.615h3.97v1.323h1.323v1.323H13.9v1.323h1.323zm2.646-3.968v-1.323h-1.323v6.615h1.323v-3.97h1.323V27.15zm1.323 2.646h1.323v-1.323h-1.323zm2.646-2.646h-1.323v1.323h1.323v3.97h1.323v-6.615H21.83zm6.614 3.958V27.16h-2.646v3.948zm-2.646.01h-1.323v-3.97h1.323v-1.323h2.646v1.323h1.323v3.97h-1.323v1.323h-2.646z" fill="#60f"/><path d="M3.97 0h31.75v1.323h1.323v1.323h1.323v1.323h1.323v15.875h-1.323v1.323h-1.323v1.323H35.72v1.323H3.97V22.49H2.646v-1.323H1.323v-1.323H.001V3.968h1.323V2.645h1.323V1.322H3.97z" fill="#cf0"/><path d="M0 14.552h1.323v1.323H0zm0 2.646h1.323v1.323H0z"/><path d="M0 15.875h1.323v1.323H0zm0 2.645h1.323v1.323H0z"/><path d="M1.323 19.844h1.323v1.323H1.323z"/><path d="M2.646 21.167H3.97V22.5H2.646z"/><path d="M3.97 22.5h1.323v1.323H3.97z"/><path d="M5.292 22.5h1.323v1.323H5.292z"/><path d="M6.615 22.5h1.323v1.323H6.615zM0 10.583h1.323v1.323H0zm0 2.647h1.323v1.323H0z"/><path d="M0 11.906h1.323v1.323H0zm0 2.646h1.323v1.323H0zm0-6.614h1.323V9.26H0z"/><path d="M0 9.26h1.323v1.323H0zm0-5.3h1.323v1.323H0zm0 2.645h1.323v1.323H0z"/><path d="M0 5.292h1.323v1.323H0zm0 2.646h1.323V9.26H0zM1.323 3.97h1.323V2.646H1.323z"/><path d="M2.646 2.646H3.97V1.323H2.646z"/><path d="M3.97 1.323h1.323V0H3.97z"/><path d="M5.292 1.323h1.323V0H5.292z"/><path d="M6.615 1.323h1.323V0H6.615z"/><use xlink:href="#B"/><use xlink:href="#B" y="2.646"/><use xlink:href="#B" y="1.323"/><use xlink:href="#B" y="3.968"/><use xlink:href="#B" x="-1.323" y="5.292"/><path d="M37.042 21.167H35.72V22.5h1.323z"/><use xlink:href="#B" x="-3.968" y="7.948"/><use xlink:href="#B" x="-5.292" y="7.948"/><path d="M33.073 22.5H31.75v1.323h1.323z"/><use xlink:href="#B" y="-3.969"/><use xlink:href="#B" y="-1.322"/><use xlink:href="#B" y="-2.646"/><use xlink:href="#B"/><path d="M39.688 7.938h-1.323V9.26h1.323z"/><use xlink:href="#B" y="-5.292"/><use xlink:href="#B" y="-10.582"/><use xlink:href="#B" y="-7.937"/><use xlink:href="#B" y="-9.26"/><path d="M39.688 7.938h-1.323V9.26h1.323zM38.365 3.97h-1.323V2.646h1.323z"/><path d="M37.042 2.646H35.72V1.323h1.323z"/><path d="M35.72 1.323h-1.323V0h1.323z"/><path d="M34.396 1.323h-1.323V0h1.323z"/><path d="M33.073 1.323H31.75V0h1.323zm-25.135 0H9.26V0H7.938z"/><path d="M9.26 1.323h1.323V0H9.26z"/><use xlink:href="#C"/><use xlink:href="#C" x="1.322"/><path d="M13.23 1.323h1.323V0H13.23z"/><use xlink:href="#C" x="3.968"/><use xlink:href="#C" x="5.291"/><use xlink:href="#C" x="6.614"/><path d="M18.52 1.323h1.323V0H18.52z"/><use xlink:href="#C" x="9.26"/><path d="M21.167 1.323H22.5V0h-1.323z"/><path d="M22.5 1.323h1.323V0H22.5z"/><use xlink:href="#C" x="13.229"/><use xlink:href="#C" x="14.552"/><path d="M26.46 1.323h1.323V0H26.46z"/><path d="M27.78 1.323h1.323V0H27.78z"/><use xlink:href="#C" x="18.52"/><use xlink:href="#C" x="19.843"/><path d="M7.938 23.813H9.26V22.5H7.938z"/><path d="M9.26 23.813h1.323V22.5H9.26z"/><use xlink:href="#D"/><use xlink:href="#D" x="1.322"/><path d="M13.23 23.813h1.323V22.5H13.23z"/><use xlink:href="#D" x="3.968"/><use xlink:href="#D" x="5.291"/><use xlink:href="#D" x="6.614"/><path d="M18.52 23.813h1.323V22.5H18.52z"/><use xlink:href="#D" x="9.26"/><path d="M21.167 23.813H22.5V22.5h-1.323z"/><path d="M22.5 23.813h1.323V22.5H22.5z"/><use xlink:href="#D" x="13.229"/><use xlink:href="#D" x="14.552"/><path d="M26.46 23.813h1.323V22.5H26.46z"/><path d="M27.78 23.813h1.323V22.5H27.78z"/><use xlink:href="#D" x="18.52"/><use xlink:href="#D" x="19.843"/><path d="M9.26 9.26h1.323v1.323H9.26z"/><path d="M10.584 10.583h1.323v1.323h-1.323z"/><path d="M10.584 9.26h1.323v1.323h-1.323z"/><path d="M9.26 10.583h1.323v1.323H9.26zM27.782 9.26h1.323v1.323h-1.323z"/><path d="M29.105 10.583h1.323v1.323h-1.323z"/><path d="M29.105 9.26h1.323v1.323h-1.323z"/><path d="M27.782 10.583h1.323v1.323h-1.323zm-13.9 3.017h1.323v1.323h-1.323z"/><path d="M15.215 14.922h1.323v1.323h-1.323z"/><path d="M16.537 16.245h1.323v1.323h-1.323z"/><path d="M17.86 16.245h1.323v1.323H17.86z"/><path d="M19.183 16.245h1.323v1.323h-1.323z"/><path d="M20.506 16.245h1.323v1.323h-1.323z"/><use xlink:href="#B" x="-13.89" y="-0.952"/><use xlink:href="#B" x="-15.213" y="0.37"/><path d="M21.83 16.245h1.323v1.323H21.83z"/><defs ><path id="B" d="M39.688 14.552h-1.323v1.323h1.323z"/><path id="C" d="M10.584 1.323h1.323V0h-1.323z"/><path id="D" d="M10.584 23.813h1.323V22.5h-1.323z"/></defs></svg>